<?xml version="1.0" encoding="UTF-8"?>
<svg id="Layer_1" xmlns="http://www.w3.org/2000/svg" version="1.1" viewBox="0 0 1417.32 1417.32">
  <!-- Generator: Adobe Illustrator 29.3.1, SVG Export Plug-In . SVG Version: 2.1.0 Build 151)  -->
  <defs>
    <style>
      .st0 {
        fill: #0db5b0;
      }

      .st1 {
        fill: #1c9585;
      }

      .st2 {
        fill: #3be4d4;
      }

      .st3 {
        fill: #095b5b;
      }

      .st4 {
        fill: #0c615d;
      }

      .st5 {
        stroke-width: .75px;
      }

      .st5, .st6 {
        stroke: #fff;
        stroke-miterlimit: 10;
      }

      .st5, .st6, .st7 {
        fill: #fff;
      }

      .st6 {
        stroke-width: .5px;
      }

      .st8 {
        fill: #0c8b8c;
      }

      .st9 {
        fill: #fc9000;
      }

      .st10 {
        fill: #ffc303;
      }

      .st11 {
        fill: #f7f7f7;
      }

      .st12 {
        fill: #0c635e;
      }

      .st13 {
        fill: #03352d;
      }

      .st14 {
        fill: #f34802;
      }
    </style>
  </defs>
  <polyline class="st3" points="820.4 177.63 788.01 407.57 755.74 403.06 788.13 172.88"/>
  <path class="st3" d="M1239.38,191.86l-425.67-54c-11.31-1.44-21.71,6.03-23.16,16.63l-6.69,48.81,470.63,71.64,7.7-55.18c1.9-13.59-8.29-26.05-22.8-27.89Z"/>
  <polyline class="st3" points="1259.01 242.74 1226.62 472.68 1194.56 466.76 1226.95 236.58"/>
  <g>
    <path class="st4" d="M312.49,1066.12c-.74-120.74-147.52-78.01-147.99,7.15,2.58,115.95,145.65,77.61,147.99-7.15Z"/>
    <path class="st1" d="M291.93,1066.82c-.53-87.19-106.53-56.34-106.88,5.17,1.86,83.73,105.19,56.05,106.88-5.17Z"/>
    <path class="st7" d="M229.69,1031.68c-23.26,7.98-38.6,32-30.06,56.28,1.91,5.43,10.61,3.09,8.68-2.39-6.86-19.49,4.85-38.72,23.77-45.21,5.45-1.87,3.11-10.57-2.39-8.68h0Z"/>
    <path class="st7" d="M208.89,1103.41c1.62,2.33,3.34,4.7,5.4,6.67,1.64,1.56,4.24,3.48,6.65,2.48,2.17-.89,3.95-3.03,3.14-5.54-.68-2.09-3.2-4.1-5.54-3.14.84-.35,1.9-.05,2.68.31-.79-.37.24-.13.12.15.03-.06-1.34-1.27-1.49-1.42-1.38-1.47-2.14-2.51-3.21-4.06-1.34-1.93-4-3-6.16-1.61-1.92,1.24-3.05,4.09-1.61,6.16h0Z"/>
  </g>
  <path class="st0" d="M1224.24,203.1l-402.77-53.91c-10.7-1.43-19.84,3.57-20.35,11.14l-1.25,18.52c-.63,9.28,6.37,17.5,16.17,19l407.99,62.34c11.25,1.72,21.64-6.01,22.4-16.66l1.39-19.56c.69-9.71-9.85-19.03-23.57-20.87Z"/>
  <polyline class="st8" points="729.91 378.87 729.91 873.47 106.49 1068.64 106.49 645.05"/>
  <polyline class="st3" points="1259.01 472.68 1259.01 952.76 729.91 781.7 729.91 378.87"/>
  <path class="st3" d="M195.72,682.1l88.84,225.51c4.49,11.39,15.69,19.27,28.63,20.12l344.59,22.7c19.08,1.26,35.3-12.89,35.3-30.8v-429.86c0-22.38-24.65-37.33-46.47-28.18l-433.43,181.65c-15.84,6.64-23.47,23.63-17.47,38.86Z"/>
  <path class="st6" d="M878.88,164.59l-32.87-4.57c-2.89-.59-6.06.49-6.43,2.01l-.84,4.53c-.46,1.87,3.78,3.23,4.77,3.39l34.46,5.38c1.13.18,5.02-.19,5.55-2.33l.69-2.81c.48-1.97-.57-4-2.54-4.83-1.08-.46-2.16-.68-2.79-.76Z"/>
  <text></text>
  <path class="st8" d="M1174.08,532.8l5.56,152.62c.56,15.49-9.49,29.59-24.99,35.05l-335.33,118.01c-25.24,8.88-52.18-8.58-52.18-33.82v-327.96c0-22.59,21.91-39.64,45.64-35.52l329.77,57.32c17.8,3.09,30.91,17.35,31.53,34.29Z"/>
  <g>
    <path class="st10" d="M1014.85,482.91s-4.39-338.25-340.37-289.66c-335.99,48.59-336.39,366.83-321.22,431.23,16.57,70.35,91.87,363.49,396.11,256.84,196.74-68.97,277.23-125.5,265.48-398.4"/>
    <path class="st9" d="M980.78,489.64s-3.92-302.26-304.15-258.84c-300.23,43.42-300.59,327.79-287.04,385.34,14.81,62.87,82.1,324.81,353.96,229.5,175.81-61.63,247.73-112.15,237.23-356.01"/>
    <path class="st10" d="M962.22,493.19s-3.67-283.38-285.16-242.67c-281.48,40.71-281.82,307.32-269.11,361.28,13.88,58.94,76.97,304.52,331.85,215.17,164.83-57.78,232.25-105.14,222.41-333.77"/>
    <path class="st14" d="M712.01,774.15l-13.06-53.2c-58.51,99.5-135.75,8.78-175.92,2.1l25.01-37.94c41.05,5.85,97.93,4.97,156.06-8.16,73.69-16.64,117.22-52.3,108.47-86.23-8.44-32.74-131.36,9.13-212.76,8.61-112.01.09-115.53-72.73-128.88-124.52-12.74-49.41,47.12-93.5,140.3-123.99l-15.5-60.12,54-22.1,25.25,65.31c62.58-12.87,97.22-20.52,129.92-17.2l.79,54.44c.21,14.38-3.4,26.94-7.41,36.36-4.6,10.82-15.89,17.8-28.33,17.52-22.86-.52-59.57-.93-77.79-.93-82.2,0-131.66,6.85-125.53,30.66,7.98,30.95,50.37,37.76,146.19,38.79,113.35.86,175.3,19.63,188.96,72.61,12.12,47.03-33.61,103.97-137.9,138.23l15.96,61.91-67.83,7.85Z"/>
    <path class="st9" d="M706.16,773.83l-15.5-60.12c-60.35,13-125.38,16.35-165.55,9.67l-9.13-52.96c-2.51-14.59,11.3-27.04,26.77-24.12,44.02,8.3,105.01,19.87,150.56,9.58,73.69-16.64,119.71-38.47,110.96-72.4-8.44-32.74-86.36-8.11-167.76-8.62-112.01.09-158.96-42.41-165.59-100.04-5.81-50.53,38.84-100.75,132.02-131.24l-15.5-60.12,64.37-14.54,14.88,57.74c62.58-12.87,107.59-12.96,140.28-9.64l-16.8,69.93c-23.63-2.22-106.48-10.36-153.66,0-44.27,9.72-84.3,36.75-78.17,60.56,7.98,30.95,50.37,37.76,146.19,38.79,113.35.86,175.3,19.63,188.96,72.61,12.12,47.03-33.61,103.97-137.9,138.23l15.96,61.91-65.4,14.77Z"/>
  </g>
  <path class="st7" d="M380.82,629.43c8.9,27.11,17.42,54.78,30.31,80.33,9.91,19.64,23.45,37.77,44.53,45.94,6.04,2.34,13.17-2.58,14.76-8.38,1.86-6.78-2.31-12.41-8.38-14.76-2.6-1.01,1.38.83-.86-.39-.89-.49-1.81-.92-2.7-1.42-1.79-1.02-3.52-2.15-5.17-3.39,2,1.5-.45-.43-.85-.78-.81-.71-1.61-1.44-2.38-2.19-1.6-1.55-3.12-3.19-4.57-4.88-2.38-2.78-4.51-5.83-7.24-10.28s-5.31-9.27-7.65-14.07c-11.11-22.81-18.67-47.79-26.65-72.11-2.02-6.16-8.3-10.16-14.76-8.38-6.03,1.66-10.41,8.58-8.38,14.76h0Z"/>
  <polyline class="st0" points="635.59 745.83 635.59 1239.71 106.49 1068.64 106.49 645.05"/>
  <polyline class="st2" points="635.59 745.83 1259.01 472.68 1259.01 974.84 635.59 1239.71 635.59 759.63"/>
  <path class="st0" d="M736.81,1284.87"/>
  <path class="st0" d="M1228.9,577.21v331.15c0,15.43-9.61,29.43-24.59,35.86l-469.99,201.41c-27.9,11.96-59.67-7.13-59.67-35.86v-323.43c0-15.22,9.36-29.08,24.04-35.62l469.99-209.13c27.96-12.44,60.22,6.64,60.22,35.62Z"/>
  <path class="st4" d="M1254.59,1027.51c-.74-120.74-147.52-78.01-147.99,7.15,2.58,115.95,145.65,77.61,147.99-7.15Z"/>
  <path class="st12" d="M820.52,1201.2c-.74-120.74-147.52-78.01-147.99,7.15,2.58,115.95,145.65,77.61,147.99-7.15Z"/>
  <path class="st1" d="M799.96,1201.9c-.53-87.19-106.53-56.34-106.88,5.17,1.86,83.73,105.19,56.05,106.88-5.17Z"/>
  <path class="st1" d="M1234.03,1028.21c-.53-87.19-106.53-56.34-106.88,5.17,1.86,83.73,105.19,56.05,106.88-5.17Z"/>
  <path class="st13" d="M722.19,1161.43"/>
  <path class="st7" d="M737.71,1162.82c-23.26,7.98-38.6,32-30.06,56.28,1.91,5.43,10.61,3.09,8.68-2.39-6.86-19.49,4.85-38.72,23.77-45.21,5.45-1.87,3.11-10.57-2.39-8.68h0Z"/>
  <path class="st7" d="M718.28,1237.83c1.57,2.27,3.19,4.52,4.98,6.62,1.59,1.86,3.44,3.27,6.06,2.69,2.3-.51,3.87-3.3,3.14-5.54-.78-2.41-3.07-3.69-5.54-3.14h-.05c.8.01,1.6.01,2.39.01.48.11.9.34,1.26.66.39.31.45.36.21.15-.13-.17-.35-.34-.5-.5-.42-.45-.82-.93-1.21-1.41-.15-.18-.58-.73-.22-.27-.3-.38-.58-.77-.87-1.16-.64-.87-1.27-1.76-1.88-2.65-1.38-2-3.95-2.91-6.16-1.61-1.98,1.16-3,4.15-1.61,6.16h0Z"/>
  <path class="st7" d="M1172.07,987.04c-23.26,7.98-38.6,32-30.06,56.28,1.91,5.43,10.61,3.09,8.68-2.39-6.86-19.49,4.85-38.72,23.77-45.21,5.45-1.87,3.11-10.57-2.39-8.68h0Z"/>
  <path class="st7" d="M1151.78,1063.66c1.57,2.27,3.19,4.52,4.98,6.62,1.59,1.86,3.44,3.27,6.06,2.69,2.3-.51,3.87-3.3,3.14-5.54-.78-2.41-3.07-3.69-5.54-3.14h-.05c.8.01,1.6.01,2.39.01.48.11.9.34,1.26.66.39.31.45.36.21.15-.13-.17-.35-.34-.5-.5-.42-.45-.82-.93-1.21-1.41-.15-.18-.58-.73-.22-.27-.3-.38-.58-.77-.87-1.16-.64-.87-1.27-1.76-1.88-2.65-1.38-2-3.95-2.91-6.16-1.61-1.98,1.16-3,4.15-1.61,6.16h0Z"/>
  <path class="st8" d="M132.9,735.54v272.39c0,20.42,13.95,38.55,34.64,45.01l373.49,116.71c32.76,10.24,66.62-12.51,66.75-44.84l1.25-315.96c.09-22.54-16.77-42.03-40.35-46.63l-374.74-73.14c-31.48-6.14-61.05,16.35-61.05,46.45Z"/>
  <path class="st11" d="M1020.23,189.73"/>
  <path class="st11" d="M818.46,161.72"/>
  <path class="st5" d="M1222.41,210.01l-242.46-33.3c-6.44-.89-11.56.84-11.39,3.83l.41,7.33c.2,3.67,4.87,7.15,10.79,8.03l246.08,36.81c6.79,1.02,12.47-1.75,12.26-5.97l-.39-7.74c-.2-3.84-7.03-7.86-15.29-9Z"/>
  <path class="st5" d="M1199.32,532.13l-222.9,95.31c-5.92,2.53-9.22,6.58-7.34,9.01l4.6,5.95c2.3,2.98,8.24,3.53,13.72,1.26l227.98-94.21c6.29-2.6,9.46-7.81,6.83-11.24l-4.82-6.3c-2.39-3.13-10.46-3.03-18.06.22Z"/>
  <path class="st5" d="M776.44,714.41l-76.29,35.62c-6.62,3.73-7.7,8.13-6.42,10.79l1.54,3.22c1.56,3.27,4.52,5.04,6.83,4.09l96.3-39.56c2.66-1.09,3.41-5.29,1.63-9.04l-4.91-6.13c-1.63-3.42-15.47-.4-18.67,1.02Z"/>
  <path class="st5" d="M847.52,685.77l-27.41,11.87c-.96.41-4.11,3.59-3.58,5.59l1.31,4.88c.96,2.85,4.61,3.17,5.42,2.73l30.64-11.4c1.02-.38,5.2-2.31,4.23-7.33l-.98-3.68c-.68-2.56-4.66-4.14-9.62-2.65Z"/>
  <path class="st5" d="M466.34,752.94l101.1,21.69c2.69.58,5.5-1.26,6.27-4.09l1.88-6.93c.94-3.47-.2-6.57-2.65-7.17l-101.76-24.86c-2.81-.69-6.18,2.17-7.27,6.15l-2,7.32c-.99,3.63.99,7.16,4.43,7.9Z"/>
  <path class="st5" d="M430.07,726.85l-46.63-8.48c-1.63-.3-8.32.43-9.04,2.7l-1.76,5.53c-.75,3.37,4.07,6.29,5.51,6.45l50.75,11.23c1.69.37,8.88,1.55,11.22-3.87l1.33-4.17c.93-2.9-3.43-7.24-11.38-9.39Z"/>
  <path class="st7" d="M682.19,226.33c-96.98-3.95-193.28,47.69-246.86,128.07-13.87,20.81-24.65,43.89-31.19,68.06-4.04,14.93,19.11,21.3,23.14,6.38,22.31-82.48,97.17-147.08,179.04-169.74,25.05-6.93,49.78-9.83,75.87-8.76,6.48.26,12-5.7,12-12,0-6.72-5.5-11.73-12-12h0Z"/>
  <path class="st5" d="M508.53,484.97c-2.04-6.71-9.95-32.74-11.67-37.8-.73-2.16-3.1-3.45-5.49-3.08l-1.34.2c-2.85.44-5.03,2.6-5.34,5.29-.78,6.56-1.32,16.21-.92,24.45.31,6.47,2.12,12.79,5.2,18.59l4.48,8.44c4.1,7.73,9.55,14.79,16.32,20.65,3.39,2.94,7.09,5.69,11.1,7.87,2.17,1.18,4.57,1.97,7.03,2.45l19.58,3.84c.81.16,1.45-.67,1.01-1.32-1.82-2.65-8.33-8.09-15.19-13.88-11.45-9.67-19.99-21.98-24.76-35.71"/>
  <path class="st5" d="M851.52,584.94c-50,89.51,58.37,18.34,28.64-28.86-2.44-12.8-21.27-25.67-34.45-35.25-3.05,13.4,19.14,46.86,5.81,64.11Z"/>
  <path class="st14" d="M774.67,966.69c1.6-.57,23.26,3,24.89,3.47,6.85,1.95-12.42,8.11-12.82,13.03-5.06,62.48-17.36,131.35-36.29,135.26-38.75,8.01-64.19-62.2-68.81-159.08-4.31-90.29,21.05-177.06,62.24-177.05,19.71,0,26.89,65.09,35.11,120.28,1.22,8.17,10.85,21.27,4.45,26.34h0c-10.28,8.14-38.38-3.4-39.7-16.6-3.34-33.38.12-48.48-13.85-55.39-9.55-4.72-22.27,34.16-19.31,95.94,2.83,59.22,7.63,100.79,22.35,100.52,13.17-.24,13.59-18.85,14.95-50.62.26-6,1.66-14.9,4.61-21.85,2.06-4.83,6.08-8.52,10.98-10.27l11.22-4Z"/>
  <path class="st5" d="M523.99,676.58l3.81,27.42c.13.96,1.56,4.45,2.7,4.34l2.79-.29c1.65-.35,2.18-3.65,2.01-4.47l-3.24-30.3c-.11-1.01-.76-5.21-3.59-5.26l-2.1.21c-1.46.15-2.71,3.52-2.38,8.35Z"/>
  <path class="st5" d="M785.72,331.65l-4.17,27.38c-.15.96.23,4.68,1.36,4.85l2.77.42c1.69.07,3.14-2.97,3.22-3.81l5.54-30.01c.18-1,.76-5.21-1.95-5.97l-2.09-.32c-1.45-.22-3.62,2.71-4.68,7.45Z"/>
  <path class="st14" d="M911.91,1044.16l-7.68,8.29c-5.17,1.98-24.66-2.09-25.81-7.2l-2.49-37.44c-.7-3.11.4-8.1-2.13-13.17-2.05-4.1-7.2-5.97-11.81-4.63l-9.04,2.63c-2.48.72-5.54,3.04-6.65,5.24-4.45,8.77-3.63,25.47-3.3,32.94.11,2.44.4,4.86.88,7.25l3.6,18.01c-.11,2.86,1.03,12.9-3.54,16.01l-6.19,7.39c-9.97.75-27.27.08-29.55-16.34l-5.17-144.48c0-68.74,4.59-123.81,10.11-133.98.69-1.27,6.15-12.15,7.03-13.3l6.11-9.49c4.95-6.48,24.86-5.04,27.63,2.49,5.72,15.58,2.85,37.4-5.66,7.23l64.23,227.59c10.41,36.89,3.58,43.37-.57,44.96ZM859.91,892.88c-3.11-11.56-8.1-28.23-11.35-40.35-.86-3.21-3.65-14.01-5.05-17.04h0c-.68-2.18-4.49-9.38-8.8-8.05-6.65,2.04-5.91,21.43-7.35,35.87-1.53,15.29-.77,30.7,2.13,45.81l6.3,32.73c2,6.6,1.25,12.36,19.11,9.73l11.63-2.04c5.06-.98,4.49-10.72,3.11-15.38l-9.74-41.27Z"/>
  <path class="st14" d="M988.86,995.39l-24.3-61.73c-1.92-4.89-6.4-8.5-11.85-9.57h0c-7.11-1.39-13.21,4.85-11.12,11.35l9.15,28.43c3.41,10.61,25.97,58.83,15.18,63.38l-15.18,9.99c-6.49,2.73-19.25-1.76-20.75-8.27l-64.42-279.62c-1.41-6.13,7.79-10.97,14.22-9.24l31.13,8.7c29.29,10.95,34.66,21.63,45.33,60.78,7.7,28.27,7.21,49.18,2.9,64.65-3.44,12.36-1.08,25.5,6.27,36.27l57.53,84.27c2.3,3.99,10.6,4.89,6.38,7.11l-7.86,6.81c-11.5,6.06-28.04-1.7-32.61-13.29ZM918.59,863.96c1.5,4.67,6.77,7.32,11.76,5.91h0c10.03-2.83,15.03-22.71,5.27-53.03-3.58-11.14-7.71-18.81-11.99-23.88-6.99-8.26-21.17-4.9-23.37,5.44l-1.1,5.18,19.42,60.37Z"/>
  <path class="st10" d="M793.95,970.46c1.8-.6,3.78-.79,5.62-.31,7.72,2.01,8.4,12.34,7.93,17.47-5.96,65.17-30.41,130.15-52.25,131.06-32.72,1.37-56.57-57.53-61.4-158.54-4.5-94.14,20.27-176.58,50.04-177.83,22.21-.93,46.15,63.78,55.19,121.3,1.34,8.51-2.35,17.04-9.59,22.35h0c-11.63,8.53-28.77,1.69-30.2-12.07-3.63-34.79.34-50.56-15.4-57.71-10.75-4.89-25.24,35.7-22.17,100.12,2.95,61.74,8.19,105.08,24.79,104.75,14.85-.29,15.4-19.7,17.06-52.84.31-6.26,1.93-15.55,5.29-22.8,2.34-5.05,6.89-8.91,12.43-10.75l12.66-4.21Z"/>
  <path class="st10" d="M921.1,1044.16l-16.86,8.29c-5.17,1.98-15.47-2.09-16.62-7.2l-2.49-37.44c-.7-3.11.4-8.1-2.13-13.17-2.05-4.1-7.2-5.97-11.81-4.63l-9.04,2.63c-2.48.72-5.54,3.04-6.65,5.24-4.45,8.77-3.63,25.47-3.3,32.94.11,2.44.4,4.86.88,7.25l3.6,18.01c-.11,2.86,1.03,12.9-3.54,16.01l-15.37,7.39c-9.97.75-18.08.08-20.36-16.34l-5.17-144.48c0-68.74,4.59-123.81,10.11-133.98.69-1.27,6.15-12.15,7.03-13.3l6.11-9.49c4.95-6.48,15.67-5.04,18.44,2.49,5.72,15.58,12.04,37.4,3.52,7.23l64.23,227.59c10.41,36.89,3.58,43.37-.57,44.96ZM869.09,892.88c-3.11-11.56-8.1-28.23-11.35-40.35-.86-3.21-3.65-14.01-5.05-17.04h0c-.68-2.18-4.49-9.38-8.8-8.05-6.65,2.04-5.91,21.43-7.35,35.87-1.53,15.29-.77,30.7,2.13,45.81l6.3,32.73c2,6.6,1.25,12.36,19.11,9.73l11.63-2.04c5.06-.98,4.49-10.72,3.11-15.38l-9.74-41.27Z"/>
  <path class="st14" d="M1028.11,740.46l-17.72,2.44c-15.76,5.73-12.22,9.76-8.24,20.58l80.61,199.12c3.3,8.96-7.56,23.71-16.12,28.77l-21.17,14.26c-5.4,3.19-12.55.45-13.99-5.37l-60.15-242.49c-1.4-5.64-6.36-9.89-12.48-10.7l-13.59,2.09c-7.11,1.81-14.48-1.98-16.64-8.58l-6.48-24.29c3.44-9.84,5.31-11.71,18.76-16.01l56.46-13.52c12.57-3.82,26.11,2.46,30.47,14.14l10.85,12.58c7.69,8.49.63,26.26-10.57,26.98Z"/>
  <path class="st10" d="M995.95,996.21l-24.3-61.73c-1.92-4.89-6.4-8.5-11.85-9.57h0c-7.11-1.39-13.21,4.85-11.12,11.35l23.08,71.74c3.41,10.61-2.11,21.95-12.9,26.49l-6.26,2.63c-6.49,2.73-14.03-.83-15.53-7.34l-64.42-279.62c-1.41-6.13,4.67-11.45,11.11-9.73l34.25,9.18c29.29,10.95,34.66,21.63,45.33,60.78,7.7,28.27,7.21,49.18,2.9,64.65-3.44,12.36-1.08,25.5,6.27,36.27l57.53,84.27c2.3,3.99.76,8.96-3.46,11.18h0c-11.5,6.06-26.06,1.04-30.62-10.55ZM925.68,864.78c1.5,4.67,6.77,7.32,11.76,5.91h0c10.03-2.83,15.03-22.71,5.27-53.03-3.58-11.14-7.71-18.81-11.99-23.88-6.99-8.26-21.17-4.9-23.37,5.44l-1.1,5.18,19.42,60.37Z"/>
  <path class="st14" d="M1091.22,865.71c4.75-2.35,11.65,3.37,13.12,8.21,8.17,26.84,6.39,43.35,17.11,41.01,6.75-1.48,10.68-5.42,6.05-24-5.19-20.8-11.12-37.25-32.77-49.36-25.03-14.12-47.12,2.62-60.91-26.76-24.1-51.34,18.81-113.58,50.13-122.5,42.22-12.03,43.22,51.28,45.67,100.36.22,4.41-10.76,10.49-14.64,7.97l-10.88-7.09c-3.75-2.44-6.41-6.11-7.4-10.29-5.32-22.66-7.85-46.82-28.67-46.82-7.52,0-15.34,31.4-10.89,49.23,4.91,19.69,24.33,15.45,43.75,25.31,28.76,14.48,51.02,46.61,61.87,82.41,19.44,64.12-38.37,87.12-50.89,83.45-16.94-4.97-31.02-21.2-46.87-72.25-2.6-8.38-.69-17.44,5.06-24.31l21.15-14.57Z"/>
  <path class="st10" d="M1028.43,734.93l-4.56.24c-12.2.63-20.38,12.01-16.4,22.83l75.29,204.62c3.3,8.96-.42,18.86-8.97,23.92l-23,13.62c-5.4,3.19-12.55.45-13.99-5.37l-60.15-242.49c-1.4-5.64-6.36-9.89-12.48-10.7l-13.59,2.09c-7.11,1.81-14.48-1.98-16.64-8.58l-6.22-18.97c-2-6.09,1.59-12.54,8.06-14.51l66.9-20.34c12.57-3.82,26.11,2.46,30.47,14.14l8.07,21.62c3.16,8.46-3.23,17.4-12.79,17.89Z"/>
  <path class="st14" d="M1192.95,815.3c-.33,3.42.01,8.95.8,12.3l11.78,50.11c1.56,7.46-5.65,36.83,8.23,35.55,7.85-.72.73,13.18-7.32,16.23l-15.56,5.88c-4.49,1.7-9.65.13-12.18-3.73-10.18-15.6-12.08-59.15-12.88-67.13l-3.22-83.8c-.14-1.4-.5-2.77-1.07-4.08l-52-111.75c-2.64-5.67-4.5-11.64-5.51-17.75-.97-5.89-1.92-12.55-2.5-17.46-.33-2.77,1.9-10.08,4.1-14.96,1.02-2.27,2.58-4.27,4.6-5.85l17.7-13.87c7.98-1.95,11.07,18.82,11.86,23.9l3.18,31.96c2.6,12.39,22.56,64.39,24.24,70.23.63,2.2,4.09,1.77,4.08-.51-.09-11.52-.29-37.77-.31-40.08-.08-6.97-1.36-29.82-1.39-30.98l-.51-43.95c-.12-5.23,7.46-12.3,13.05-12.3l-2.94,2.77c15.1,0,26.83,11.92,26.09,26.04,0,.07,0,.14,0,.2l-11.5,176.67c-.32,4.25-.18,10.04-.79,16.39Z"/>
  <path class="st10" d="M1091.22,865.71c4.75-2.35,10.62,0,12.09,4.83,8.17,26.84,13.12,43.37,23.84,41.03,6.75-1.48,10.68-5.42,6.05-24-5.19-20.8-11.12-37.25-32.77-49.36-25.03-14.12-47.12,2.62-60.91-26.76-24.1-51.34,13.11-110.22,44.43-119.14,42.22-12.03,43.22,51.28,45.67,100.36.22,4.41-5.06,7.14-8.94,4.61l-10.88-7.09c-3.75-2.44-6.41-6.11-7.4-10.29-5.32-22.66-7.85-46.82-28.67-46.82-7.52,0-15.34,31.4-10.89,49.23,4.91,19.69,24.33,15.45,43.75,25.31,28.76,14.48,47.17,38.48,59.03,86.04,13.44,53.87-23.8,78.79-48.04,79.82-17.49.74-31.3-21.24-46.87-72.25-2.56-8.4-.69-17.44,5.06-24.31l15.45-11.21Z"/>
  <path class="st10" d="M1198.38,809.04c-.21,3.33-.22,12.32.54,15.58l11.78,50.11c1.56,7.46,8.18,22.5,8.23,35.55.03,8.13-5.26,15.45-13.32,18.49l-9.57,3.62c-4.49,1.7-9.65.13-12.18-3.73-10.17-15.6-12.08-59.15-12.88-67.13l-3.22-83.8c-.14-1.4-.5-2.77-1.07-4.08l-52-111.75c-2.64-5.67-4.5-11.62-5.51-17.73-.97-5.9-1.93-12.57-2.51-17.48-.45-3.77.73-7.56,3.24-10.53l16.7-19.8c2.9-4.35,10.03-2.95,10.82,2.13l10.68,49.37c2.6,12.39,22.56,64.39,24.24,70.23.63,2.2,4.09,1.77,4.08-.51-.09-11.52-.29-37.77-.31-40.08-.08-6.97-1.36-29.82-1.39-30.98l-.51-43.95c-.12-5.23,4.38-9.53,9.96-9.53h.15c15.1,0,26.83,11.92,26.09,26.04,0,.07,0,.14,0,.2l-11.5,176.67c-.27,3.5-.22,8.06-.53,13.11Z"/>
  <path class="st7" d="M1011.12,687.93c-15.4,3.64-30.88,7.2-46.01,11.86-7.05,2.17-14.79,4.45-20.83,8.85-9.01,6.56-5.98,15.69-2.66,24.61,1.34,3.59,7.14,2.03,5.79-1.6-2.8-7.53-6.16-14.11,1.55-18.94,6.28-3.93,13.83-6,20.87-8.07,14.15-4.16,28.54-7.52,42.89-10.92,3.76-.89,2.17-6.68-1.6-5.79h0Z"/>
  <path class="st7" d="M1017.85,890.75c4.74,17,8.41,34.25,12.01,51.52,2.42,11.59,4.49,23.62,8.97,34.64,2.44,6.01,6.31,13.01,13.51,13.71,8.91.86,16.98-7.4,22.63-13.13,2.71-2.75-1.53-7-4.24-4.24-4.02,4.07-12.27,13.5-19.11,11.14-5.68-1.96-7.96-11.15-9.47-16.11-3.31-10.91-5.38-22.19-7.71-33.34-3.2-15.36-6.6-30.66-10.82-45.78-1.04-3.71-6.83-2.14-5.79,1.6h0Z"/>
  <path class="st7" d="M959.43,813.55c-7.63-36.22-38.78-67.76-77.48-65.56-3.84.22-3.86,6.22,0,6,36.17-2.05,64.58,27.42,71.69,61.16.8,3.78,6.58,2.18,5.79-1.6h0Z"/>
  <path class="st7" d="M838.78,769.9c9.51,16.39,15.28,35.08,20.95,53.06,8.51,26.97,15.78,54.33,22.85,81.71,4.67,18.12,9.21,36.28,13.7,54.44.93,3.75,6.71,2.16,5.79-1.6-7.73-31.24-15.54-62.46-24.07-93.49-6.59-23.96-13.43-47.98-22.27-71.23-3.37-8.85-6.99-17.71-11.75-25.92-1.94-3.34-7.12-.32-5.18,3.03h0Z"/>
  <path class="st7" d="M740.31,788.51c-11.76,4.87-16.8,22.11-20.36,32.97-7.27,22.23-11.23,45.58-14.08,68.74-3.46,28.07-4.86,56.46-3.83,84.73.97,26.51,3.87,53.45,11.65,78.9,6.58,21.53,17.44,44.4,37.76,56.03,3.36,1.92,6.38-3.26,3.03-5.18-17.12-9.8-26.89-28.54-33.1-46.58-8.14-23.64-11.47-48.85-12.9-73.72-2.9-50.22.84-102.88,14.3-151.5,2.47-8.93,5.3-17.92,9.46-26.23,2.21-4.42,5.92-10.83,9.66-12.38,3.52-1.46,1.98-7.26-1.6-5.79h0Z"/>
  <path class="st7" d="M874.97,867.8c1.93,0,1.93-3,0-3s-1.93,3,0,3h0Z"/>
  <path class="st7" d="M903.07,1045.56c1.93,0,1.93-3,0-3s-1.93,3,0,3h0Z"/>
  <path class="st7" d="M902.54,975.03c3.8,13.56,7.88,27.32,9.4,41.37.86,7.95,2.21,23.32-8.87,24.67-3.78.46-3.83,6.47,0,6,12.68-1.54,15.66-13.41,15.32-24.53-.51-16.66-5.59-33.17-10.06-49.1-1.04-3.71-6.83-2.14-5.79,1.6h0Z"/>
  <path class="st7" d="M1144.37,867.1c4.95,16.55,11.78,33.91,10.68,51.48-1.35,21.39-18.17,34.7-36.04,43.66-3.45,1.73-.42,6.91,3.03,5.18,18.85-9.45,36.14-23.64,38.74-45.79,2.24-19.08-5.24-38.18-10.61-56.13-1.1-3.69-6.9-2.12-5.79,1.6h0Z"/>
  <path class="st7" d="M1091.27,705.33c12.18.35,16.65,16.86,19.07,26.29,4.25,16.54,5.71,33.73,7.15,50.69.32,3.82,6.33,3.85,6,0-1.62-19.16-3.09-38.99-8.81-57.45-3.49-11.26-9.81-25.14-23.41-25.53-3.86-.11-3.86,5.89,0,6h0Z"/>
  <path class="st7" d="M1195.73,620.25c-4.59,57.27-10.39,114.88-10.76,172.39-.16,25.53,2.45,50.25,8.54,75.04,3.99,16.25,8.36,32.4,12.23,48.68.89,3.75,6.68,2.17,5.79-1.6-6.13-25.79-14.33-51.38-18.1-77.67-4.72-33-2.26-67.03-.28-100.13,2.33-38.94,5.46-77.83,8.58-116.71.31-3.85-5.69-3.83-6,0h0Z"/>
</svg>